<mxfile host="app.diagrams.net" modified="2023-04-08T14:01:59.950Z" agent="Mozilla/5.0 (Macintosh; Intel Mac OS X 10.15; rv:109.0) Gecko/20100101 Firefox/111.0" etag="Zo5lujBsnsUJlfAfcmEz" version="21.1.5" type="google">
  <diagram name="Pagina-1" id="RuAifjhAgVb85MZH2tJP">
    <mxGraphModel grid="1" page="1" gridSize="10" guides="1" tooltips="1" connect="1" arrows="1" fold="1" pageScale="1" pageWidth="827" pageHeight="1169" math="0" shadow="0">
      <root>
        <mxCell id="0" />
        <mxCell id="1" parent="0" />
        <mxCell id="OMF2L9YSLqtHHRaWre4P-3" value="" style="edgeStyle=orthogonalEdgeStyle;rounded=0;orthogonalLoop=1;jettySize=auto;html=1;" edge="1" parent="1" source="OMF2L9YSLqtHHRaWre4P-1" target="OMF2L9YSLqtHHRaWre4P-2">
          <mxGeometry relative="1" as="geometry" />
        </mxCell>
        <mxCell id="OMF2L9YSLqtHHRaWre4P-1" value="START" style="ellipse;whiteSpace=wrap;html=1;" vertex="1" parent="1">
          <mxGeometry x="240" y="40" width="160" height="80" as="geometry" />
        </mxCell>
        <mxCell id="OMF2L9YSLqtHHRaWre4P-11" value="" style="edgeStyle=orthogonalEdgeStyle;rounded=0;orthogonalLoop=1;jettySize=auto;html=1;" edge="1" parent="1" source="OMF2L9YSLqtHHRaWre4P-2" target="OMF2L9YSLqtHHRaWre4P-4">
          <mxGeometry relative="1" as="geometry" />
        </mxCell>
        <mxCell id="OMF2L9YSLqtHHRaWre4P-2" value="Scrivi &quot;Quale operazione devo fare?&quot;" style="shape=parallelogram;perimeter=parallelogramPerimeter;whiteSpace=wrap;html=1;fixedSize=1;" vertex="1" parent="1">
          <mxGeometry x="240" y="160" width="160" height="80" as="geometry" />
        </mxCell>
        <mxCell id="OMF2L9YSLqtHHRaWre4P-13" value="" style="edgeStyle=orthogonalEdgeStyle;rounded=0;orthogonalLoop=1;jettySize=auto;html=1;" edge="1" parent="1" source="OMF2L9YSLqtHHRaWre4P-4" target="OMF2L9YSLqtHHRaWre4P-12">
          <mxGeometry relative="1" as="geometry" />
        </mxCell>
        <mxCell id="OMF2L9YSLqtHHRaWre4P-4" value="Scrivi &quot;1 = addizione&quot;&lt;br&gt;Scrivi &quot;2= sottrazione&quot;&lt;br&gt;Scrivi &quot;3 = moltiplicazione&quot;&lt;br&gt;Scrivi &quot;4 = divisione&quot;&lt;br&gt;Scrivi &quot;5 = modulo&quot;&lt;br&gt;Scrivi &quot;6 = potenza&quot;&lt;br&gt;Scrivi &quot;7 = radice_quadrata&quot;" style="shape=parallelogram;perimeter=parallelogramPerimeter;whiteSpace=wrap;html=1;fixedSize=1;" vertex="1" parent="1">
          <mxGeometry x="240" y="280" width="160" height="120" as="geometry" />
        </mxCell>
        <mxCell id="OMF2L9YSLqtHHRaWre4P-6" value="operazione == 7" style="rhombus;whiteSpace=wrap;html=1;" vertex="1" parent="1">
          <mxGeometry x="240" y="680" width="160" height="80" as="geometry" />
        </mxCell>
        <mxCell id="OMF2L9YSLqtHHRaWre4P-14" value="" style="edgeStyle=orthogonalEdgeStyle;rounded=0;orthogonalLoop=1;jettySize=auto;html=1;" edge="1" parent="1" source="OMF2L9YSLqtHHRaWre4P-12">
          <mxGeometry relative="1" as="geometry">
            <mxPoint x="320" y="560" as="targetPoint" />
          </mxGeometry>
        </mxCell>
        <mxCell id="OMF2L9YSLqtHHRaWre4P-12" value="int sceltaOperazione" style="shape=parallelogram;perimeter=parallelogramPerimeter;whiteSpace=wrap;html=1;fixedSize=1;" vertex="1" parent="1">
          <mxGeometry x="240" y="440" width="160" height="80" as="geometry" />
        </mxCell>
        <mxCell id="OMF2L9YSLqtHHRaWre4P-15" value="" style="endArrow=classic;html=1;rounded=0;exitX=1;exitY=0.5;exitDx=0;exitDy=0;" edge="1" parent="1" source="OMF2L9YSLqtHHRaWre4P-6">
          <mxGeometry width="50" height="50" relative="1" as="geometry">
            <mxPoint x="390" y="710" as="sourcePoint" />
            <mxPoint x="520" y="720" as="targetPoint" />
          </mxGeometry>
        </mxCell>
        <mxCell id="OMF2L9YSLqtHHRaWre4P-21" value="FALSE" style="edgeLabel;html=1;align=center;verticalAlign=middle;resizable=0;points=[];" vertex="1" connectable="0" parent="OMF2L9YSLqtHHRaWre4P-15">
          <mxGeometry x="-0.8357" y="2" relative="1" as="geometry">
            <mxPoint as="offset" />
          </mxGeometry>
        </mxCell>
        <mxCell id="OMF2L9YSLqtHHRaWre4P-16" value="" style="endArrow=classic;html=1;rounded=0;exitX=0;exitY=0.5;exitDx=0;exitDy=0;" edge="1" parent="1" source="OMF2L9YSLqtHHRaWre4P-6">
          <mxGeometry width="50" height="50" relative="1" as="geometry">
            <mxPoint x="410" y="730" as="sourcePoint" />
            <mxPoint x="120" y="720" as="targetPoint" />
          </mxGeometry>
        </mxCell>
        <mxCell id="OMF2L9YSLqtHHRaWre4P-22" value="TRUE" style="edgeLabel;html=1;align=center;verticalAlign=middle;resizable=0;points=[];" vertex="1" connectable="0" parent="OMF2L9YSLqtHHRaWre4P-16">
          <mxGeometry x="-0.6881" y="1" relative="1" as="geometry">
            <mxPoint as="offset" />
          </mxGeometry>
        </mxCell>
        <mxCell id="OMF2L9YSLqtHHRaWre4P-17" value="" style="endArrow=classic;html=1;rounded=0;" edge="1" parent="1">
          <mxGeometry width="50" height="50" relative="1" as="geometry">
            <mxPoint x="520" y="720" as="sourcePoint" />
            <mxPoint x="520" y="800" as="targetPoint" />
          </mxGeometry>
        </mxCell>
        <mxCell id="OMF2L9YSLqtHHRaWre4P-18" value="" style="endArrow=classic;html=1;rounded=0;" edge="1" parent="1">
          <mxGeometry width="50" height="50" relative="1" as="geometry">
            <mxPoint x="120" y="720" as="sourcePoint" />
            <mxPoint x="120" y="800" as="targetPoint" />
          </mxGeometry>
        </mxCell>
        <mxCell id="OMF2L9YSLqtHHRaWre4P-24" value="" style="edgeStyle=orthogonalEdgeStyle;rounded=0;orthogonalLoop=1;jettySize=auto;html=1;" edge="1" parent="1" source="OMF2L9YSLqtHHRaWre4P-19" target="OMF2L9YSLqtHHRaWre4P-23">
          <mxGeometry relative="1" as="geometry" />
        </mxCell>
        <mxCell id="OMF2L9YSLqtHHRaWre4P-19" value="Scrivi &quot;Inserisci il numero&quot;" style="shape=parallelogram;perimeter=parallelogramPerimeter;whiteSpace=wrap;html=1;fixedSize=1;" vertex="1" parent="1">
          <mxGeometry x="40" y="800" width="160" height="80" as="geometry" />
        </mxCell>
        <mxCell id="OMF2L9YSLqtHHRaWre4P-23" value="Leggi singoloNumero" style="shape=parallelogram;perimeter=parallelogramPerimeter;whiteSpace=wrap;html=1;fixedSize=1;" vertex="1" parent="1">
          <mxGeometry x="40" y="920" width="160" height="80" as="geometry" />
        </mxCell>
        <mxCell id="OMF2L9YSLqtHHRaWre4P-27" value="" style="edgeStyle=orthogonalEdgeStyle;rounded=0;orthogonalLoop=1;jettySize=auto;html=1;" edge="1" parent="1" source="OMF2L9YSLqtHHRaWre4P-25" target="OMF2L9YSLqtHHRaWre4P-26">
          <mxGeometry relative="1" as="geometry" />
        </mxCell>
        <mxCell id="OMF2L9YSLqtHHRaWre4P-25" value="Scrivi &quot;Inserisci il primo numero&quot;" style="shape=parallelogram;perimeter=parallelogramPerimeter;whiteSpace=wrap;html=1;fixedSize=1;" vertex="1" parent="1">
          <mxGeometry x="440" y="800" width="160" height="80" as="geometry" />
        </mxCell>
        <mxCell id="OMF2L9YSLqtHHRaWre4P-29" value="" style="edgeStyle=orthogonalEdgeStyle;rounded=0;orthogonalLoop=1;jettySize=auto;html=1;" edge="1" parent="1" source="OMF2L9YSLqtHHRaWre4P-26" target="OMF2L9YSLqtHHRaWre4P-28">
          <mxGeometry relative="1" as="geometry" />
        </mxCell>
        <mxCell id="OMF2L9YSLqtHHRaWre4P-26" value="Leggi primoNumero" style="shape=parallelogram;perimeter=parallelogramPerimeter;whiteSpace=wrap;html=1;fixedSize=1;" vertex="1" parent="1">
          <mxGeometry x="440" y="920" width="160" height="80" as="geometry" />
        </mxCell>
        <mxCell id="OMF2L9YSLqtHHRaWre4P-31" value="" style="edgeStyle=orthogonalEdgeStyle;rounded=0;orthogonalLoop=1;jettySize=auto;html=1;" edge="1" parent="1" source="OMF2L9YSLqtHHRaWre4P-28" target="OMF2L9YSLqtHHRaWre4P-30">
          <mxGeometry relative="1" as="geometry" />
        </mxCell>
        <mxCell id="OMF2L9YSLqtHHRaWre4P-28" value="Scrivi &quot;Inserisci il secondo numero&quot;" style="shape=parallelogram;perimeter=parallelogramPerimeter;whiteSpace=wrap;html=1;fixedSize=1;" vertex="1" parent="1">
          <mxGeometry x="440" y="1040" width="160" height="80" as="geometry" />
        </mxCell>
        <mxCell id="OMF2L9YSLqtHHRaWre4P-30" value="Leggi secondoNumero" style="shape=parallelogram;perimeter=parallelogramPerimeter;whiteSpace=wrap;html=1;fixedSize=1;" vertex="1" parent="1">
          <mxGeometry x="440" y="1160" width="160" height="80" as="geometry" />
        </mxCell>
        <mxCell id="OMF2L9YSLqtHHRaWre4P-32" value="" style="endArrow=classic;html=1;rounded=0;" edge="1" parent="1">
          <mxGeometry width="50" height="50" relative="1" as="geometry">
            <mxPoint x="120" y="1000" as="sourcePoint" />
            <mxPoint x="120" y="1320" as="targetPoint" />
          </mxGeometry>
        </mxCell>
        <mxCell id="OMF2L9YSLqtHHRaWre4P-35" value="" style="endArrow=classic;html=1;rounded=0;" edge="1" parent="1">
          <mxGeometry width="50" height="50" relative="1" as="geometry">
            <mxPoint x="519.6" y="1240" as="sourcePoint" />
            <mxPoint x="520" y="1320" as="targetPoint" />
          </mxGeometry>
        </mxCell>
        <mxCell id="OMF2L9YSLqtHHRaWre4P-37" value="risOperazione = Math.sqrt(singoloNumero);" style="rounded=0;whiteSpace=wrap;html=1;" vertex="1" parent="1">
          <mxGeometry x="40" y="1320" width="160" height="80" as="geometry" />
        </mxCell>
        <mxCell id="OMF2L9YSLqtHHRaWre4P-40" value="" style="endArrow=classic;html=1;rounded=0;exitX=0.5;exitY=1;exitDx=0;exitDy=0;" edge="1" parent="1" source="OMF2L9YSLqtHHRaWre4P-37">
          <mxGeometry width="50" height="50" relative="1" as="geometry">
            <mxPoint x="450" y="1420" as="sourcePoint" />
            <mxPoint x="120" y="1440" as="targetPoint" />
          </mxGeometry>
        </mxCell>
        <mxCell id="OMF2L9YSLqtHHRaWre4P-41" value="" style="endArrow=classic;html=1;rounded=0;exitX=0.5;exitY=1;exitDx=0;exitDy=0;" edge="1" parent="1">
          <mxGeometry width="50" height="50" relative="1" as="geometry">
            <mxPoint x="519.6" y="1400" as="sourcePoint" />
            <mxPoint x="519.6" y="1440" as="targetPoint" />
          </mxGeometry>
        </mxCell>
        <mxCell id="OMF2L9YSLqtHHRaWre4P-51" value="" style="edgeStyle=orthogonalEdgeStyle;rounded=0;orthogonalLoop=1;jettySize=auto;html=1;" edge="1" parent="1" source="OMF2L9YSLqtHHRaWre4P-42" target="OMF2L9YSLqtHHRaWre4P-50">
          <mxGeometry relative="1" as="geometry" />
        </mxCell>
        <mxCell id="OMF2L9YSLqtHHRaWre4P-42" value="Scrivi risOperazione" style="shape=parallelogram;perimeter=parallelogramPerimeter;whiteSpace=wrap;html=1;fixedSize=1;" vertex="1" parent="1">
          <mxGeometry x="240" y="1480" width="160" height="80" as="geometry" />
        </mxCell>
        <mxCell id="OMF2L9YSLqtHHRaWre4P-45" value="" style="endArrow=classic;html=1;rounded=0;" edge="1" parent="1">
          <mxGeometry width="50" height="50" relative="1" as="geometry">
            <mxPoint x="120" y="1440" as="sourcePoint" />
            <mxPoint x="320" y="1440" as="targetPoint" />
          </mxGeometry>
        </mxCell>
        <mxCell id="OMF2L9YSLqtHHRaWre4P-46" value="" style="endArrow=classic;html=1;rounded=0;" edge="1" parent="1">
          <mxGeometry width="50" height="50" relative="1" as="geometry">
            <mxPoint x="520" y="1440" as="sourcePoint" />
            <mxPoint x="320" y="1440" as="targetPoint" />
          </mxGeometry>
        </mxCell>
        <mxCell id="OMF2L9YSLqtHHRaWre4P-48" value="" style="endArrow=classic;html=1;rounded=0;" edge="1" parent="1">
          <mxGeometry width="50" height="50" relative="1" as="geometry">
            <mxPoint x="319.5" y="1440" as="sourcePoint" />
            <mxPoint x="320" y="1480" as="targetPoint" />
          </mxGeometry>
        </mxCell>
        <mxCell id="OMF2L9YSLqtHHRaWre4P-50" value="END" style="ellipse;whiteSpace=wrap;html=1;" vertex="1" parent="1">
          <mxGeometry x="240" y="1600" width="160" height="80" as="geometry" />
        </mxCell>
        <mxCell id="OMF2L9YSLqtHHRaWre4P-53" value="" style="edgeStyle=orthogonalEdgeStyle;rounded=0;orthogonalLoop=1;jettySize=auto;html=1;" edge="1" parent="1" source="OMF2L9YSLqtHHRaWre4P-52" target="OMF2L9YSLqtHHRaWre4P-6">
          <mxGeometry relative="1" as="geometry" />
        </mxCell>
        <mxCell id="OMF2L9YSLqtHHRaWre4P-52" value="double risOperazione = 0;" style="rounded=0;whiteSpace=wrap;html=1;" vertex="1" parent="1">
          <mxGeometry x="240" y="560" width="160" height="80" as="geometry" />
        </mxCell>
        <mxCell id="OMF2L9YSLqtHHRaWre4P-58" value="" style="edgeStyle=orthogonalEdgeStyle;rounded=0;orthogonalLoop=1;jettySize=auto;html=1;" edge="1" parent="1" source="OMF2L9YSLqtHHRaWre4P-54" target="OMF2L9YSLqtHHRaWre4P-56">
          <mxGeometry relative="1" as="geometry" />
        </mxCell>
        <mxCell id="OMF2L9YSLqtHHRaWre4P-54" value="START" style="ellipse;whiteSpace=wrap;html=1;" vertex="1" parent="1">
          <mxGeometry x="240" y="1760" width="160" height="80" as="geometry" />
        </mxCell>
        <mxCell id="OMF2L9YSLqtHHRaWre4P-55" value="risOperazione = eseguiOperazione(primoNumero, secondoNumero, sceltaOperazione)" style="rounded=0;whiteSpace=wrap;html=1;" vertex="1" parent="1">
          <mxGeometry x="440" y="1320" width="160" height="80" as="geometry" />
        </mxCell>
        <mxCell id="OMF2L9YSLqtHHRaWre4P-60" value="" style="edgeStyle=orthogonalEdgeStyle;rounded=0;orthogonalLoop=1;jettySize=auto;html=1;" edge="1" parent="1" source="OMF2L9YSLqtHHRaWre4P-56" target="OMF2L9YSLqtHHRaWre4P-59">
          <mxGeometry relative="1" as="geometry" />
        </mxCell>
        <mxCell id="OMF2L9YSLqtHHRaWre4P-56" value="Leggi primoNumero" style="shape=parallelogram;perimeter=parallelogramPerimeter;whiteSpace=wrap;html=1;fixedSize=1;" vertex="1" parent="1">
          <mxGeometry x="240" y="1880" width="160" height="80" as="geometry" />
        </mxCell>
        <mxCell id="OMF2L9YSLqtHHRaWre4P-57" value="eseguiOperazione" style="text;html=1;align=center;verticalAlign=middle;resizable=0;points=[];autosize=1;strokeColor=none;fillColor=none;" vertex="1" parent="1">
          <mxGeometry x="414" y="1785" width="120" height="30" as="geometry" />
        </mxCell>
        <mxCell id="OMF2L9YSLqtHHRaWre4P-62" value="" style="edgeStyle=orthogonalEdgeStyle;rounded=0;orthogonalLoop=1;jettySize=auto;html=1;" edge="1" parent="1" source="OMF2L9YSLqtHHRaWre4P-59" target="OMF2L9YSLqtHHRaWre4P-61">
          <mxGeometry relative="1" as="geometry" />
        </mxCell>
        <mxCell id="OMF2L9YSLqtHHRaWre4P-59" value="Leggi secondoNumero" style="shape=parallelogram;perimeter=parallelogramPerimeter;whiteSpace=wrap;html=1;fixedSize=1;" vertex="1" parent="1">
          <mxGeometry x="240" y="2000" width="160" height="80" as="geometry" />
        </mxCell>
        <mxCell id="OMF2L9YSLqtHHRaWre4P-64" value="" style="edgeStyle=orthogonalEdgeStyle;rounded=0;orthogonalLoop=1;jettySize=auto;html=1;" edge="1" parent="1" source="OMF2L9YSLqtHHRaWre4P-61" target="OMF2L9YSLqtHHRaWre4P-63">
          <mxGeometry relative="1" as="geometry" />
        </mxCell>
        <mxCell id="OMF2L9YSLqtHHRaWre4P-61" value="Leggi sceltaOperazione" style="shape=parallelogram;perimeter=parallelogramPerimeter;whiteSpace=wrap;html=1;fixedSize=1;" vertex="1" parent="1">
          <mxGeometry x="240" y="2120" width="160" height="80" as="geometry" />
        </mxCell>
        <mxCell id="OMF2L9YSLqtHHRaWre4P-63" value="..." style="rhombus;whiteSpace=wrap;html=1;" vertex="1" parent="1">
          <mxGeometry x="240" y="2240" width="160" height="80" as="geometry" />
        </mxCell>
        <mxCell id="OMF2L9YSLqtHHRaWre4P-65" value="Scrivi &quot;1 = addizione&quot;&lt;br&gt;Scrivi &quot;2= sottrazione&quot;&lt;br&gt;Scrivi &quot;3 = moltiplicazione&quot;&lt;br&gt;Scrivi &quot;4 = divisione&quot;&lt;br&gt;Scrivi &quot;5 = modulo&quot;&lt;br&gt;Scrivi &quot;6 = potenza&quot;&lt;br&gt;Scrivi &quot;7 = radice_quadrata&quot;" style="shape=parallelogram;perimeter=parallelogramPerimeter;whiteSpace=wrap;html=1;fixedSize=1;" vertex="1" parent="1">
          <mxGeometry x="620" y="2070" width="160" height="120" as="geometry" />
        </mxCell>
      </root>
    </mxGraphModel>
  </diagram>
</mxfile>
